# xmcd CD database file
#
# Track frame offsets:
#	150
#	15485
#	36402
#	47740
#	57775
#	76827
#	90664
#	103604
#	116725
#	141774
#	156269
#	169065
#	188814
#	214217
#	227304
#	239915
#	253319
#	264449
#	283145
#	302384
#
# Disc length: 4369 seconds
#
# Revision: 3
# Processed by: cddbd v1.5.2PL0 Copyright (c) Steve Scherf et al.
# Submitted via: CDex 1.51
#
DISCID=15110f14
DTITLE=Михаил Круг - Золотая Серия 2001 CD1
DYEAR=2001
DGENRE=Blatnyak
TTITLE0=Мышка
TTITLE1=Морозовский Городок
TTITLE2=Новый Год, Порядки Новые
TTITLE3=Роза
TTITLE4=Мадам
TTITLE5=Электричка
TTITLE6=Жиган-Лимон
TTITLE7=Фраер
TTITLE8=Мой Бог (Маравихер-2)
TTITLE9=Ништяк, Браток
TTITLE10=Пусти Меня, Мама
TTITLE11=Светочка
TTITLE12=Прокурору Зелёному - Слава
TTITLE13=Кумовая
TTITLE14=А Сечку Жрите Сами
TTITLE15=Водочку Пьём
TTITLE16=Зона - СПИДУ Нет !
TTITLE17=Мамины Подружки
TTITLE18=Девочка-Пай
TTITLE19=Осенний Дождь
EXTD=YEAR: 2001
EXTT0=
EXTT1=
EXTT2=
EXTT3=
EXTT4=
EXTT5=
EXTT6=
EXTT7=
EXTT8=
EXTT9=
EXTT10=
EXTT11=
EXTT12=
EXTT13=
EXTT14=
EXTT15=
EXTT16=
EXTT17=
EXTT18=
EXTT19=
PLAYORDER=
